<?xml version="1.0" encoding="UTF-8" standalone="no"?><svg xmlns="http://www.w3.org/2000/svg" xmlns:xlink="http://www.w3.org/1999/xlink" contentScriptType="application/ecmascript" contentStyleType="text/css" height="4384.375px" preserveAspectRatio="none" style="width:3643px;height:4384px;" version="1.1" viewBox="0 0 3643 4384" width="3643.75px" zoomAndPan="magnify"><defs><filter height="300%" id="f1bwezu1krzlw2" width="300%" x="-1" y="-1"><feGaussianBlur result="blurOut" stdDeviation="6.25"/><feColorMatrix in="blurOut" result="blurOut2" type="matrix" values="0 0 0 0 0 0 0 0 0 0 0 0 0 0 0 0 0 0 .4 0"/><feOffset dx="12.5" dy="12.5" in="blurOut2" result="blurOut3"/><feBlend in="SourceGraphic" in2="blurOut3" mode="normal"/></filter><filter height="1" id="b1bwezu1krzlw20" width="1" x="0" y="0"><feFlood flood-color="#ADD8E6" result="flood"/><feComposite in="SourceGraphic" in2="flood" operator="over"/></filter><filter height="1" id="b1bwezu1krzlw21" width="1" x="0" y="0"><feFlood flood-color="#F08080" result="flood"/><feComposite in="SourceGraphic" in2="flood" operator="over"/></filter></defs><g><!--MD5=[96eda3bf45935624f9e243a122be94da]
cluster sst_layer--><polygon fill="#ADD8E6" filter="url(#f1bwezu1krzlw2)" points="93.75,100,1081.25,100,1103.125,176.9531,2025,176.9531,2025,2828.125,93.75,2828.125,93.75,100" style="stroke: #000000; stroke-width: 4.6875;"/><line style="stroke: #000000; stroke-width: 4.6875;" x1="93.75" x2="1103.125" y1="176.9531" y2="176.9531"/><text fill="#000000" font-family="Arial" font-size="50" font-weight="bold" lengthAdjust="spacingAndGlyphs" textLength="968.75" x="106.25" y="152.6611">SST Process (Orchestration Layer)</text><!--MD5=[f60d4dd0fdf37150c3d7bf26a3753ca1]
cluster acalsim_layer--><polygon fill="#F08080" filter="url(#f1bwezu1krzlw2)" points="506.25,3515.625,1650,3515.625,1671.875,3592.5781,2918.75,3592.5781,2918.75,3996.875,506.25,3996.875,506.25,3515.625" style="stroke: #000000; stroke-width: 4.6875;"/><line style="stroke: #000000; stroke-width: 4.6875;" x1="506.25" x2="1671.875" y1="3592.5781" y2="3592.5781"/><text fill="#000000" font-family="Arial" font-size="50" font-weight="bold" lengthAdjust="spacingAndGlyphs" textLength="1125" x="518.75" y="3568.2861">ACALSim A100 Processes (Independent)</text><!--MD5=[637ad760a824b4f188254bdb9f14c9f0]
entity scheduler--><rect fill="#90EE90" filter="url(#f1bwezu1krzlw2)" height="266.2109" style="stroke: #A80036; stroke-width: 4.6875;" width="709.375" x="751.5625" y="240.625"/><rect fill="#90EE90" height="15.625" style="stroke: #A80036; stroke-width: 4.6875;" width="31.25" x="735.9375" y="256.25"/><rect fill="#90EE90" height="15.625" style="stroke: #A80036; stroke-width: 4.6875;" width="31.25" x="735.9375" y="475.5859"/><text fill="#000000" font-family="Arial" font-size="43.75" font-weight="bold" lengthAdjust="spacingAndGlyphs" textLength="646.875" x="782.8125" y="312.4847">HostSchedulerComponent</text><text fill="#000000" font-family="Arial" font-size="43.75" lengthAdjust="spacingAndGlyphs" textLength="0" x="795.3125" y="363.4125"/><text fill="#000000" font-family="Arial" font-size="43.75" lengthAdjust="spacingAndGlyphs" textLength="459.375" x="782.8125" y="414.3402">Workload Distribution</text><text fill="#000000" font-family="Arial" font-size="43.75" lengthAdjust="spacingAndGlyphs" textLength="325" x="782.8125" y="465.2679">Load Balancing</text><!--MD5=[0124eca2ccde9cc79ff937a1cba3f444]
entity gpu0_comp--><rect fill="#FFFFE0" filter="url(#f1bwezu1krzlw2)" height="266.2109" style="stroke: #A80036; stroke-width: 4.6875;" width="662.5" x="775" y="864.0625"/><rect fill="#FFFFE0" height="15.625" style="stroke: #A80036; stroke-width: 4.6875;" width="31.25" x="759.375" y="879.6875"/><rect fill="#FFFFE0" height="15.625" style="stroke: #A80036; stroke-width: 4.6875;" width="31.25" x="759.375" y="1099.0234"/><text fill="#000000" font-family="Arial" font-size="43.75" font-weight="bold" lengthAdjust="spacingAndGlyphs" textLength="600" x="806.25" y="935.9222">GPUDeviceComponent 0</text><text fill="#000000" font-family="Arial" font-size="43.75" lengthAdjust="spacingAndGlyphs" textLength="0" x="818.75" y="986.85"/><text fill="#000000" font-family="Arial" font-size="43.75" lengthAdjust="spacingAndGlyphs" textLength="359.375" x="806.25" y="1037.7777">Job Port Wrapper</text><text fill="#000000" font-family="Arial" font-size="43.75" lengthAdjust="spacingAndGlyphs" textLength="437.5" x="806.25" y="1088.7054">NVLink Port Wrapper</text><!--MD5=[f287871b29cfcb682b58ba4e58dd3dca]
entity gpu1_comp--><rect fill="#FFFFE0" filter="url(#f1bwezu1krzlw2)" height="266.2109" style="stroke: #A80036; stroke-width: 4.6875;" width="662.5" x="1262.5" y="1487.5"/><rect fill="#FFFFE0" height="15.625" style="stroke: #A80036; stroke-width: 4.6875;" width="31.25" x="1246.875" y="1503.125"/><rect fill="#FFFFE0" height="15.625" style="stroke: #A80036; stroke-width: 4.6875;" width="31.25" x="1246.875" y="1722.4609"/><text fill="#000000" font-family="Arial" font-size="43.75" font-weight="bold" lengthAdjust="spacingAndGlyphs" textLength="600" x="1293.75" y="1559.3597">GPUDeviceComponent 1</text><text fill="#000000" font-family="Arial" font-size="43.75" lengthAdjust="spacingAndGlyphs" textLength="0" x="1306.25" y="1610.2875"/><text fill="#000000" font-family="Arial" font-size="43.75" lengthAdjust="spacingAndGlyphs" textLength="359.375" x="1293.75" y="1661.2152">Job Port Wrapper</text><text fill="#000000" font-family="Arial" font-size="43.75" lengthAdjust="spacingAndGlyphs" textLength="437.5" x="1293.75" y="1712.1429">NVLink Port Wrapper</text><!--MD5=[a4e66c3c3115c60326b5695c3d2f1b35]
entity gpu2_comp--><rect fill="#FFFFE0" filter="url(#f1bwezu1krzlw2)" height="266.2109" style="stroke: #A80036; stroke-width: 4.6875;" width="662.5" x="690.625" y="1987.5"/><rect fill="#FFFFE0" height="15.625" style="stroke: #A80036; stroke-width: 4.6875;" width="31.25" x="675" y="2003.125"/><rect fill="#FFFFE0" height="15.625" style="stroke: #A80036; stroke-width: 4.6875;" width="31.25" x="675" y="2222.4609"/><text fill="#000000" font-family="Arial" font-size="43.75" font-weight="bold" lengthAdjust="spacingAndGlyphs" textLength="600" x="721.875" y="2059.3597">GPUDeviceComponent 2</text><text fill="#000000" font-family="Arial" font-size="43.75" lengthAdjust="spacingAndGlyphs" textLength="0" x="734.375" y="2110.2875"/><text fill="#000000" font-family="Arial" font-size="43.75" lengthAdjust="spacingAndGlyphs" textLength="359.375" x="721.875" y="2161.2152">Job Port Wrapper</text><text fill="#000000" font-family="Arial" font-size="43.75" lengthAdjust="spacingAndGlyphs" textLength="437.5" x="721.875" y="2212.1429">NVLink Port Wrapper</text><!--MD5=[bdc070bdaed0957055b3663f97499e7d]
entity gpu3_comp--><rect fill="#FFFFE0" filter="url(#f1bwezu1krzlw2)" height="266.2109" style="stroke: #A80036; stroke-width: 4.6875;" width="662.5" x="168.75" y="2487.5"/><rect fill="#FFFFE0" height="15.625" style="stroke: #A80036; stroke-width: 4.6875;" width="31.25" x="153.125" y="2503.125"/><rect fill="#FFFFE0" height="15.625" style="stroke: #A80036; stroke-width: 4.6875;" width="31.25" x="153.125" y="2722.4609"/><text fill="#000000" font-family="Arial" font-size="43.75" font-weight="bold" lengthAdjust="spacingAndGlyphs" textLength="600" x="200" y="2559.3597">GPUDeviceComponent 3</text><text fill="#000000" font-family="Arial" font-size="43.75" lengthAdjust="spacingAndGlyphs" textLength="0" x="212.5" y="2610.2875"/><text fill="#000000" font-family="Arial" font-size="43.75" lengthAdjust="spacingAndGlyphs" textLength="359.375" x="200" y="2661.2152">Job Port Wrapper</text><text fill="#000000" font-family="Arial" font-size="43.75" lengthAdjust="spacingAndGlyphs" textLength="437.5" x="200" y="2712.1429">NVLink Port Wrapper</text><!--MD5=[f76b100935f60b75ea95c1c9f72543a8]
entity a100_0--><rect fill="#FFE4B5" filter="url(#f1bwezu1krzlw2)" height="317.1387" style="stroke: #A80036; stroke-width: 4.6875;" width="496.875" x="2373.4375" y="3631.25"/><rect fill="#FFE4B5" height="15.625" style="stroke: #A80036; stroke-width: 4.6875;" width="31.25" x="2357.8125" y="3646.875"/><rect fill="#FFE4B5" height="15.625" style="stroke: #A80036; stroke-width: 4.6875;" width="31.25" x="2357.8125" y="3917.1387"/><text fill="#000000" font-family="Arial" font-size="43.75" font-weight="bold" lengthAdjust="spacingAndGlyphs" textLength="178.125" x="2404.6875" y="3703.1097">A100-0</text><text fill="#000000" font-family="Arial" font-size="43.75" font-weight="bold" lengthAdjust="spacingAndGlyphs" textLength="434.375" x="2404.6875" y="3754.0375">ACALSim Process</text><text fill="#000000" font-family="Arial" font-size="43.75" lengthAdjust="spacingAndGlyphs" textLength="0" x="2417.1875" y="3804.9652"/><text fill="#000000" font-family="Arial" font-size="43.75" lengthAdjust="spacingAndGlyphs" textLength="321.875" x="2404.6875" y="3855.8929">Cycle-Accurate</text><text fill="#000000" font-family="Arial" font-size="43.75" lengthAdjust="spacingAndGlyphs" textLength="403.125" x="2404.6875" y="3906.8207">2-Phase Execution</text><!--MD5=[e465d559bd1f11ddaed85887ee97215a]
entity a100_1--><rect fill="#FFE4B5" filter="url(#f1bwezu1krzlw2)" height="317.1387" style="stroke: #A80036; stroke-width: 4.6875;" width="496.875" x="1767.1875" y="3631.25"/><rect fill="#FFE4B5" height="15.625" style="stroke: #A80036; stroke-width: 4.6875;" width="31.25" x="1751.5625" y="3646.875"/><rect fill="#FFE4B5" height="15.625" style="stroke: #A80036; stroke-width: 4.6875;" width="31.25" x="1751.5625" y="3917.1387"/><text fill="#000000" font-family="Arial" font-size="43.75" font-weight="bold" lengthAdjust="spacingAndGlyphs" textLength="178.125" x="1798.4375" y="3703.1097">A100-1</text><text fill="#000000" font-family="Arial" font-size="43.75" font-weight="bold" lengthAdjust="spacingAndGlyphs" textLength="434.375" x="1798.4375" y="3754.0375">ACALSim Process</text><text fill="#000000" font-family="Arial" font-size="43.75" lengthAdjust="spacingAndGlyphs" textLength="0" x="1810.9375" y="3804.9652"/><text fill="#000000" font-family="Arial" font-size="43.75" lengthAdjust="spacingAndGlyphs" textLength="321.875" x="1798.4375" y="3855.8929">Cycle-Accurate</text><text fill="#000000" font-family="Arial" font-size="43.75" lengthAdjust="spacingAndGlyphs" textLength="403.125" x="1798.4375" y="3906.8207">2-Phase Execution</text><!--MD5=[34adc775bece23961646d397a2751c35]
entity a100_2--><rect fill="#FFE4B5" filter="url(#f1bwezu1krzlw2)" height="317.1387" style="stroke: #A80036; stroke-width: 4.6875;" width="496.875" x="1160.9375" y="3631.25"/><rect fill="#FFE4B5" height="15.625" style="stroke: #A80036; stroke-width: 4.6875;" width="31.25" x="1145.3125" y="3646.875"/><rect fill="#FFE4B5" height="15.625" style="stroke: #A80036; stroke-width: 4.6875;" width="31.25" x="1145.3125" y="3917.1387"/><text fill="#000000" font-family="Arial" font-size="43.75" font-weight="bold" lengthAdjust="spacingAndGlyphs" textLength="178.125" x="1192.1875" y="3703.1097">A100-2</text><text fill="#000000" font-family="Arial" font-size="43.75" font-weight="bold" lengthAdjust="spacingAndGlyphs" textLength="434.375" x="1192.1875" y="3754.0375">ACALSim Process</text><text fill="#000000" font-family="Arial" font-size="43.75" lengthAdjust="spacingAndGlyphs" textLength="0" x="1204.6875" y="3804.9652"/><text fill="#000000" font-family="Arial" font-size="43.75" lengthAdjust="spacingAndGlyphs" textLength="321.875" x="1192.1875" y="3855.8929">Cycle-Accurate</text><text fill="#000000" font-family="Arial" font-size="43.75" lengthAdjust="spacingAndGlyphs" textLength="403.125" x="1192.1875" y="3906.8207">2-Phase Execution</text><!--MD5=[5c385f833fe1487bcb90c0443a256595]
entity a100_3--><rect fill="#FFE4B5" filter="url(#f1bwezu1krzlw2)" height="317.1387" style="stroke: #A80036; stroke-width: 4.6875;" width="496.875" x="554.6875" y="3631.25"/><rect fill="#FFE4B5" height="15.625" style="stroke: #A80036; stroke-width: 4.6875;" width="31.25" x="539.0625" y="3646.875"/><rect fill="#FFE4B5" height="15.625" style="stroke: #A80036; stroke-width: 4.6875;" width="31.25" x="539.0625" y="3917.1387"/><text fill="#000000" font-family="Arial" font-size="43.75" font-weight="bold" lengthAdjust="spacingAndGlyphs" textLength="178.125" x="585.9375" y="3703.1097">A100-3</text><text fill="#000000" font-family="Arial" font-size="43.75" font-weight="bold" lengthAdjust="spacingAndGlyphs" textLength="434.375" x="585.9375" y="3754.0375">ACALSim Process</text><text fill="#000000" font-family="Arial" font-size="43.75" lengthAdjust="spacingAndGlyphs" textLength="0" x="598.4375" y="3804.9652"/><text fill="#000000" font-family="Arial" font-size="43.75" lengthAdjust="spacingAndGlyphs" textLength="321.875" x="585.9375" y="3855.8929">Cycle-Accurate</text><text fill="#000000" font-family="Arial" font-size="43.75" lengthAdjust="spacingAndGlyphs" textLength="403.125" x="585.9375" y="3906.8207">2-Phase Execution</text><!--MD5=[0d199fa1ed44268b5370b089dd1a9e38]
entity job0--><ellipse cx="2690.625" cy="3184.375" fill="#98FB98" filter="url(#f1bwezu1krzlw2)" rx="25" ry="25" style="stroke: #A80036; stroke-width: 6.25;"/><text fill="#000000" font-family="Arial" font-size="43.75" font-weight="bold" lengthAdjust="spacingAndGlyphs" textLength="193.75" x="2593.75" y="3278.1097">Job Port</text><text fill="#000000" font-family="Arial" font-size="43.75" font-weight="bold" lengthAdjust="spacingAndGlyphs" textLength="143.75" x="2593.75" y="3329.0375">:9100</text><!--MD5=[7180865e00c5a5d3f15f973c36c09682]
entity nvlink0--><ellipse cx="3143.75" cy="3184.375" fill="#FFB6C1" filter="url(#f1bwezu1krzlw2)" rx="25" ry="25" style="stroke: #A80036; stroke-width: 6.25;"/><text fill="#000000" font-family="Arial" font-size="43.75" font-weight="bold" lengthAdjust="spacingAndGlyphs" textLength="287.5" x="3000" y="3278.1097">NVLink Port</text><text fill="#000000" font-family="Arial" font-size="43.75" font-weight="bold" lengthAdjust="spacingAndGlyphs" textLength="143.75" x="3000" y="3329.0375">:9200</text><!--MD5=[21eebe641c6b22f55d10646bac3a67aa]
entity job1--><ellipse cx="1890.625" cy="3184.375" fill="#98FB98" filter="url(#f1bwezu1krzlw2)" rx="25" ry="25" style="stroke: #A80036; stroke-width: 6.25;"/><text fill="#000000" font-family="Arial" font-size="43.75" font-weight="bold" lengthAdjust="spacingAndGlyphs" textLength="193.75" x="1793.75" y="3278.1097">Job Port</text><text fill="#000000" font-family="Arial" font-size="43.75" font-weight="bold" lengthAdjust="spacingAndGlyphs" textLength="143.75" x="1793.75" y="3329.0375">:9101</text><!--MD5=[763d8c9d60b33541ef7d1df3d717d246]
entity nvlink1--><ellipse cx="2290.625" cy="3184.375" fill="#FFB6C1" filter="url(#f1bwezu1krzlw2)" rx="25" ry="25" style="stroke: #A80036; stroke-width: 6.25;"/><text fill="#000000" font-family="Arial" font-size="43.75" font-weight="bold" lengthAdjust="spacingAndGlyphs" textLength="287.5" x="2146.875" y="3278.1097">NVLink Port</text><text fill="#000000" font-family="Arial" font-size="43.75" font-weight="bold" lengthAdjust="spacingAndGlyphs" textLength="143.75" x="2146.875" y="3329.0375">:9201</text><!--MD5=[75ca92bd31a686bff0ccd3ce90743e37]
entity job2--><ellipse cx="1090.625" cy="3184.375" fill="#98FB98" filter="url(#f1bwezu1krzlw2)" rx="25" ry="25" style="stroke: #A80036; stroke-width: 6.25;"/><text fill="#000000" font-family="Arial" font-size="43.75" font-weight="bold" lengthAdjust="spacingAndGlyphs" textLength="193.75" x="993.75" y="3278.1097">Job Port</text><text fill="#000000" font-family="Arial" font-size="43.75" font-weight="bold" lengthAdjust="spacingAndGlyphs" textLength="143.75" x="993.75" y="3329.0375">:9102</text><!--MD5=[18f133f356eb1739ceb3d7af940171ff]
entity nvlink2--><ellipse cx="1490.625" cy="3184.375" fill="#FFB6C1" filter="url(#f1bwezu1krzlw2)" rx="25" ry="25" style="stroke: #A80036; stroke-width: 6.25;"/><text fill="#000000" font-family="Arial" font-size="43.75" font-weight="bold" lengthAdjust="spacingAndGlyphs" textLength="287.5" x="1346.875" y="3278.1097">NVLink Port</text><text fill="#000000" font-family="Arial" font-size="43.75" font-weight="bold" lengthAdjust="spacingAndGlyphs" textLength="143.75" x="1346.875" y="3329.0375">:9202</text><!--MD5=[1631e9bcf51b1723254c6d1a4969fe5c]
entity job3--><ellipse cx="290.625" cy="3184.375" fill="#98FB98" filter="url(#f1bwezu1krzlw2)" rx="25" ry="25" style="stroke: #A80036; stroke-width: 6.25;"/><text fill="#000000" font-family="Arial" font-size="43.75" font-weight="bold" lengthAdjust="spacingAndGlyphs" textLength="193.75" x="193.75" y="3278.1097">Job Port</text><text fill="#000000" font-family="Arial" font-size="43.75" font-weight="bold" lengthAdjust="spacingAndGlyphs" textLength="143.75" x="193.75" y="3329.0375">:9103</text><!--MD5=[0fe4afdae0a8600aeb8c6fa8cab6d18c]
entity nvlink3--><ellipse cx="690.625" cy="3184.375" fill="#FFB6C1" filter="url(#f1bwezu1krzlw2)" rx="25" ry="25" style="stroke: #A80036; stroke-width: 6.25;"/><text fill="#000000" font-family="Arial" font-size="43.75" font-weight="bold" lengthAdjust="spacingAndGlyphs" textLength="287.5" x="546.875" y="3278.1097">NVLink Port</text><text fill="#000000" font-family="Arial" font-size="43.75" font-weight="bold" lengthAdjust="spacingAndGlyphs" textLength="143.75" x="546.875" y="3329.0375">:9203</text><path d="M2110.9375,248.4375 L2110.9375,425 L1461,437.5 L2110.9375,450 L2110.9375,497.9492 A0,0 0 0 0 2110.9375,497.9492 L2795.3125,497.9492 A0,0 0 0 0 2795.3125,497.9492 L2795.3125,279.6875 L2764.0625,248.4375 L2110.9375,248.4375 A0,0 0 0 0 2110.9375,248.4375 " fill="#FBFB77" filter="url(#f1bwezu1krzlw2)" style="stroke: #A80036; stroke-width: 3.125;"/><path d="M2764.0625,248.4375 L2764.0625,279.6875 L2795.3125,279.6875 L2764.0625,248.4375 " fill="#FBFB77" style="stroke: #A80036; stroke-width: 3.125;"/><text fill="#000000" font-family="Arial" font-size="37.5" font-weight="bold" lengthAdjust="spacingAndGlyphs" textLength="578.125" x="2129.6875" y="298.8708">HostSchedulerComponent</text><text fill="#000000" font-family="Arial" font-size="37.5" lengthAdjust="spacingAndGlyphs" textLength="0" x="2142.1875" y="342.5232"/><text fill="#000000" font-family="Arial" font-size="37.5" lengthAdjust="spacingAndGlyphs" textLength="618.75" x="2129.6875" y="386.1755">• Inference request distribution</text><text fill="#000000" font-family="Arial" font-size="37.5" lengthAdjust="spacingAndGlyphs" textLength="331.25" x="2129.6875" y="429.8279">• Load balancing</text><text fill="#000000" font-family="Arial" font-size="37.5" lengthAdjust="spacingAndGlyphs" textLength="318.75" x="2129.6875" y="473.4802">• Job scheduling</text><path d="M2101.5625,784.375 L2101.5625,984.375 L1437.75,996.875 L2101.5625,1009.375 L2101.5625,1208.4961 A0,0 0 0 0 2101.5625,1208.4961 L2673.4375,1208.4961 A0,0 0 0 0 2673.4375,1208.4961 L2673.4375,815.625 L2642.1875,784.375 L2101.5625,784.375 A0,0 0 0 0 2101.5625,784.375 " fill="#FBFB77" filter="url(#f1bwezu1krzlw2)" style="stroke: #A80036; stroke-width: 3.125;"/><path d="M2642.1875,784.375 L2642.1875,815.625 L2673.4375,815.625 L2642.1875,784.375 " fill="#FBFB77" style="stroke: #A80036; stroke-width: 3.125;"/><text fill="#000000" font-family="Arial" font-size="37.5" font-weight="bold" lengthAdjust="spacingAndGlyphs" textLength="487.5" x="2120.3125" y="834.8083">GPUDeviceComponent</text><text fill="#000000" font-family="Arial" font-size="37.5" lengthAdjust="spacingAndGlyphs" textLength="0" x="2132.8125" y="878.4607"/><text fill="#000000" font-family="Arial" font-size="37.5" lengthAdjust="spacingAndGlyphs" textLength="165.625" x="2120.3125" y="922.113">Job Port:</text><text fill="#000000" font-family="Arial" font-size="37.5" lengthAdjust="spacingAndGlyphs" textLength="325" x="2120.3125" y="965.7654">• Job submission</text><text fill="#000000" font-family="Arial" font-size="37.5" lengthAdjust="spacingAndGlyphs" textLength="506.25" x="2120.3125" y="1009.4177">• Completion notifications</text><text fill="#000000" font-family="Arial" font-size="37.5" lengthAdjust="spacingAndGlyphs" textLength="0" x="2132.8125" y="1053.0701"/><text fill="#000000" font-family="Arial" font-size="37.5" lengthAdjust="spacingAndGlyphs" textLength="234.375" x="2120.3125" y="1096.7224">NVLink Port:</text><text fill="#000000" font-family="Arial" font-size="37.5" lengthAdjust="spacingAndGlyphs" textLength="353.125" x="2120.3125" y="1140.3748">• Tensor sharding</text><text fill="#000000" font-family="Arial" font-size="37.5" lengthAdjust="spacingAndGlyphs" textLength="409.375" x="2120.3125" y="1184.0271">• KV cache migration</text><path d="M2782.8125,871.875 L2782.8125,1121.3867 L3498.4375,1121.3867 L3498.4375,903.125 L3467.1875,871.875 L2782.8125,871.875 " fill="#FBFB77" filter="url(#f1bwezu1krzlw2)" style="stroke: #A80036; stroke-width: 3.125;"/><path d="M3467.1875,871.875 L3467.1875,903.125 L3498.4375,903.125 L3467.1875,871.875 " fill="#FBFB77" style="stroke: #A80036; stroke-width: 3.125;"/><text fill="#000000" font-family="Arial" font-size="37.5" font-weight="bold" lengthAdjust="spacingAndGlyphs" textLength="365.625" x="2801.5625" y="922.3083">NVLink SST::Link</text><text fill="#000000" font-family="Arial" font-size="37.5" lengthAdjust="spacingAndGlyphs" textLength="0" x="2814.0625" y="965.9607"/><text fill="#000000" font-family="Arial" font-size="37.5" lengthAdjust="spacingAndGlyphs" textLength="400" x="2801.5625" y="1009.613">• Full-mesh topology</text><text fill="#000000" font-family="Arial" font-size="37.5" lengthAdjust="spacingAndGlyphs" textLength="650" x="2801.5625" y="1053.2654">• Configurable latency/bandwidth</text><text fill="#000000" font-family="Arial" font-size="37.5" lengthAdjust="spacingAndGlyphs" textLength="440.625" x="2801.5625" y="1096.9177">• Non-blocking routing</text><path d="M2981.25,3642.1875 L2981.25,3778.125 L2871.1563,3790.625 L2981.25,3803.125 L2981.25,3935.3516 A0,0 0 0 0 2981.25,3935.3516 L3581.25,3935.3516 A0,0 0 0 0 3581.25,3935.3516 L3581.25,3673.4375 L3550,3642.1875 L2981.25,3642.1875 A0,0 0 0 0 2981.25,3642.1875 " fill="#FBFB77" filter="url(#f1bwezu1krzlw2)" style="stroke: #A80036; stroke-width: 3.125;"/><path d="M3550,3642.1875 L3550,3673.4375 L3581.25,3673.4375 L3550,3642.1875 " fill="#FBFB77" style="stroke: #A80036; stroke-width: 3.125;"/><text fill="#000000" font-family="Arial" font-size="37.5" font-weight="bold" lengthAdjust="spacingAndGlyphs" textLength="303.125" x="3000" y="3692.6208">ACALSim A100</text><text fill="#000000" font-family="Arial" font-size="37.5" lengthAdjust="spacingAndGlyphs" textLength="0" x="3012.5" y="3736.2732"/><text fill="#000000" font-family="Arial" font-size="37.5" lengthAdjust="spacingAndGlyphs" textLength="534.375" x="3000" y="3779.9255">• Cycle-accurate simulation</text><text fill="#000000" font-family="Arial" font-size="37.5" lengthAdjust="spacingAndGlyphs" textLength="396.875" x="3000" y="3823.5779">• 2-phase execution</text><text fill="#000000" font-family="Arial" font-size="37.5" lengthAdjust="spacingAndGlyphs" textLength="368.75" x="3000" y="3867.2302">• Process isolation</text><text fill="#000000" font-family="Arial" font-size="37.5" lengthAdjust="spacingAndGlyphs" textLength="453.125" x="3000" y="3910.8826">• One GPU per process</text><!--MD5=[57122feb0701813a304e92ec3914fba4]
link scheduler to gpu0_comp--><path d="M1106.25,507.1875 C1106.25,507.1875 1106.25,847.7188 1106.25,847.7188 " fill="none" id="scheduler-&gt;gpu0_comp" style="stroke: #333333; stroke-width: 3.125;"/><polygon fill="#333333" points="1106.25,863.3438,1118.75,835.2188,1106.25,847.7188,1093.75,835.2188,1106.25,863.3438" style="stroke: #333333; stroke-width: 3.125;"/><text fill="#000000" font-family="Arial" font-size="37.5" font-weight="bold" lengthAdjust="spacingAndGlyphs" textLength="68.75" x="1206.25" y="637.9333">Job</text><text fill="#000000" font-family="Arial" font-size="37.5" font-weight="bold" lengthAdjust="spacingAndGlyphs" textLength="262.5" x="1109.375" y="681.5857">Distribution</text><!--MD5=[aded64ac8ec611eb12c15a82b5015d4a]
link scheduler to gpu1_comp--><path d="M1449.2188,506.875 C1449.2188,506.875 1449.2188,1471.2812 1449.2188,1471.2812 " fill="none" id="scheduler-&gt;gpu1_comp" style="stroke: #333333; stroke-width: 3.125;"/><polygon fill="#333333" points="1449.2188,1486.9062,1461.7188,1458.7812,1449.2188,1471.2812,1436.7188,1458.7812,1449.2188,1486.9062" style="stroke: #333333; stroke-width: 3.125;"/><text fill="#000000" font-family="Arial" font-size="37.5" font-weight="bold" lengthAdjust="spacingAndGlyphs" textLength="68.75" x="1756.25" y="989.4958">Job</text><text fill="#000000" font-family="Arial" font-size="37.5" font-weight="bold" lengthAdjust="spacingAndGlyphs" textLength="262.5" x="1659.375" y="1033.1482">Distribution</text><!--MD5=[3a4c7017da389463f42a1957f095f9e1]
link scheduler to gpu2_comp--><path d="M763.2813,507.625 C763.2813,507.625 763.2813,1971.25 763.2813,1971.25 " fill="none" id="scheduler-&gt;gpu2_comp" style="stroke: #333333; stroke-width: 3.125;"/><polygon fill="#333333" points="763.2813,1986.875,775.7813,1958.75,763.2813,1971.25,750.7813,1958.75,763.2813,1986.875" style="stroke: #333333; stroke-width: 3.125;"/><text fill="#000000" font-family="Arial" font-size="37.5" font-weight="bold" lengthAdjust="spacingAndGlyphs" textLength="68.75" x="762.5" y="1341.0583">Job</text><text fill="#000000" font-family="Arial" font-size="37.5" font-weight="bold" lengthAdjust="spacingAndGlyphs" textLength="262.5" x="665.625" y="1384.7107">Distribution</text><!--MD5=[29fc8de96ccdefd523daab0917c70c9e]
link scheduler to gpu3_comp--><path d="M751.3125,375 C551.9063,375 342.7188,375 342.7188,375 C342.7188,375 342.7188,2471.7813 342.7188,2471.7813 " fill="none" id="scheduler-&gt;gpu3_comp" style="stroke: #333333; stroke-width: 3.125;"/><polygon fill="#333333" points="342.7188,2487.4063,355.2188,2459.2813,342.7188,2471.7813,330.2188,2459.2813,342.7188,2487.4063" style="stroke: #333333; stroke-width: 3.125;"/><text fill="#000000" font-family="Arial" font-size="37.5" font-weight="bold" lengthAdjust="spacingAndGlyphs" textLength="68.75" x="378.125" y="1612.9333">Job</text><text fill="#000000" font-family="Arial" font-size="37.5" font-weight="bold" lengthAdjust="spacingAndGlyphs" textLength="262.5" x="281.25" y="1656.5857">Distribution</text><!--MD5=[53f0fe04df84833e7cef758e8a356109]
link gpu0_comp to gpu1_comp--><path d="M1306.25,1146.25 C1306.25,1146.25 1306.25,1471.1563 1306.25,1471.1563 " fill="none" id="gpu0_comp-gpu1_comp" style="stroke: #FF6B6B; stroke-width: 12.5;"/><polygon fill="#FF6B6B" points="1306.25,1486.7813,1318.75,1458.6563,1306.25,1471.1563,1293.75,1458.6563,1306.25,1486.7813" style="stroke: #FF6B6B; stroke-width: 12.5;"/><polygon fill="#FF6B6B" points="1306.25,1130.625,1293.75,1158.75,1306.25,1146.25,1318.75,1158.75,1306.25,1130.625" style="stroke: #FF6B6B; stroke-width: 12.5;"/><text fill="#FF0000" font-family="Arial" font-size="37.5" font-weight="bold" lengthAdjust="spacingAndGlyphs" textLength="150" x="1306.25" y="1362.9333">NVLink</text><!--MD5=[f8217347266c36fa14a0dc746615a8e8]
link gpu0_comp to gpu2_comp--><path d="M1018.75,1145.7813 C1018.75,1145.7813 1018.75,1971.5625 1018.75,1971.5625 " fill="none" id="gpu0_comp-gpu2_comp" style="stroke: #FF6B6B; stroke-width: 12.5;"/><polygon fill="#FF6B6B" points="1018.75,1987.1875,1031.25,1959.0625,1018.75,1971.5625,1006.25,1959.0625,1018.75,1987.1875" style="stroke: #FF6B6B; stroke-width: 12.5;"/><polygon fill="#FF6B6B" points="1018.75,1130.1563,1006.25,1158.2813,1018.75,1145.7813,1031.25,1158.2813,1018.75,1130.1563" style="stroke: #FF6B6B; stroke-width: 12.5;"/><text fill="#FF0000" font-family="Arial" font-size="37.5" font-weight="bold" lengthAdjust="spacingAndGlyphs" textLength="150" x="1000" y="1634.8083">NVLink</text><!--MD5=[89be3c1adad9987a594fad7b0ae91f41]
link gpu0_comp to gpu3_comp--><path d="M758.7813,996.875 C758.7813,996.875 516.6563,996.875 516.6563,996.875 C516.6563,996.875 516.6563,2471.8438 516.6563,2471.8438 " fill="none" id="gpu0_comp-gpu3_comp" style="stroke: #FF6B6B; stroke-width: 12.5;"/><polygon fill="#FF6B6B" points="516.6563,2487.4688,529.1563,2459.3438,516.6563,2471.8438,504.1563,2459.3438,516.6563,2487.4688" style="stroke: #FF6B6B; stroke-width: 12.5;"/><polygon fill="#FF6B6B" points="774.4063,996.875,746.2813,984.375,758.7813,996.875,746.2813,1009.375,774.4063,996.875" style="stroke: #FF6B6B; stroke-width: 12.5;"/><text fill="#FF0000" font-family="Arial" font-size="37.5" font-weight="bold" lengthAdjust="spacingAndGlyphs" textLength="150" x="603.125" y="1884.8083">NVLink</text><!--MD5=[4e0bccb3400b3f62fb8682cd7c6accc6]
link gpu1_comp to gpu2_comp--><path d="M1307.8125,1769.9375 C1307.8125,1769.9375 1307.8125,1971.1875 1307.8125,1971.1875 " fill="none" id="gpu1_comp-gpu2_comp" style="stroke: #FF6B6B; stroke-width: 12.5;"/><polygon fill="#FF6B6B" points="1307.8125,1986.8125,1320.3125,1958.6875,1307.8125,1971.1875,1295.3125,1958.6875,1307.8125,1986.8125" style="stroke: #FF6B6B; stroke-width: 12.5;"/><polygon fill="#FF6B6B" points="1307.8125,1754.3125,1295.3125,1782.4375,1307.8125,1769.9375,1320.3125,1782.4375,1307.8125,1754.3125" style="stroke: #FF6B6B; stroke-width: 12.5;"/><text fill="#FF0000" font-family="Arial" font-size="37.5" font-weight="bold" lengthAdjust="spacingAndGlyphs" textLength="150" x="1253.125" y="1884.8083">NVLink</text><!--MD5=[078b35c7e99d57e6ada9a45662c9c841]
link gpu1_comp to gpu3_comp--><path d="M1506.25,1768.9375 C1506.25,1768.9375 1506.25,2621.875 1506.25,2621.875 C1506.25,2621.875 847.9063,2621.875 847.9063,2621.875 " fill="none" id="gpu1_comp-gpu3_comp" style="stroke: #FF6B6B; stroke-width: 12.5;"/><polygon fill="#FF6B6B" points="832.2813,2621.875,860.4063,2634.375,847.9063,2621.875,860.4063,2609.375,832.2813,2621.875" style="stroke: #FF6B6B; stroke-width: 12.5;"/><polygon fill="#FF6B6B" points="1506.25,1753.3125,1493.75,1781.4375,1506.25,1768.9375,1518.75,1781.4375,1506.25,1753.3125" style="stroke: #FF6B6B; stroke-width: 12.5;"/><text fill="#FF0000" font-family="Arial" font-size="37.5" font-weight="bold" lengthAdjust="spacingAndGlyphs" textLength="150" x="1575" y="2134.8083">NVLink</text><!--MD5=[4a8ba8132ec5876d1d696d61469add77]
link gpu2_comp to gpu3_comp--><path d="M760.9375,2269.9375 C760.9375,2269.9375 760.9375,2471.1875 760.9375,2471.1875 " fill="none" id="gpu2_comp-gpu3_comp" style="stroke: #FF6B6B; stroke-width: 12.5;"/><polygon fill="#FF6B6B" points="760.9375,2486.8125,773.4375,2458.6875,760.9375,2471.1875,748.4375,2458.6875,760.9375,2486.8125" style="stroke: #FF6B6B; stroke-width: 12.5;"/><polygon fill="#FF6B6B" points="760.9375,2254.3125,748.4375,2282.4375,760.9375,2269.9375,773.4375,2282.4375,760.9375,2254.3125" style="stroke: #FF6B6B; stroke-width: 12.5;"/><text fill="#FF0000" font-family="Arial" font-size="37.5" font-weight="bold" lengthAdjust="spacingAndGlyphs" textLength="150" x="756.25" y="2384.8083">NVLink</text><!--MD5=[202c925f4b61e76d842850b6659355be]
link gpu0_comp to job0--><path d="M1350,1130.0625 C1350,1246.4375 1350,1396.875 1350,1396.875 C1350,1396.875 2621.0938,1396.875 2621.0938,1396.875 C2621.0938,1396.875 2621.0938,3168.4375 2621.0938,3168.4375 " fill="none" id="gpu0_comp-&gt;job0" style="stroke: #333333; stroke-width: 3.125;"/><polygon fill="#333333" points="2621.0938,3184.0625,2633.5938,3155.9375,2621.0938,3168.4375,2608.5938,3155.9375,2621.0938,3184.0625" style="stroke: #333333; stroke-width: 3.125;"/><text fill="#008000" font-family="Arial" font-size="37.5" font-weight="bold" lengthAdjust="spacingAndGlyphs" textLength="243.75" x="2703.125" y="2112.9333">Job Control</text><text fill="#008000" font-family="Arial" font-size="37.5" font-weight="bold" lengthAdjust="spacingAndGlyphs" textLength="293.75" x="2678.125" y="2156.5857">(Low-volume)</text><!--MD5=[276c9dd81204d1d3ebe0a0351b2d7023]
link gpu0_comp to nvlink0--><path d="M1393.75,1130.3125 C1393.75,1212.8438 1393.75,1303.125 1393.75,1303.125 C1393.75,1303.125 3143.75,1303.125 3143.75,1303.125 C3143.75,1303.125 3143.75,3139.1875 3143.75,3139.1875 " fill="none" id="gpu0_comp-&gt;nvlink0" style="stroke: #333333; stroke-width: 3.125;"/><polygon fill="#333333" points="3143.75,3154.8125,3156.25,3126.6875,3143.75,3139.1875,3131.25,3126.6875,3143.75,3154.8125" style="stroke: #333333; stroke-width: 3.125;"/><text fill="#FF0000" font-family="Arial" font-size="37.5" font-weight="bold" lengthAdjust="spacingAndGlyphs" textLength="306.25" x="3196.875" y="2112.9333">Data Transfer</text><text fill="#FF0000" font-family="Arial" font-size="37.5" font-weight="bold" lengthAdjust="spacingAndGlyphs" textLength="303.125" x="3198.4375" y="2156.5857">(High-volume)</text><!--MD5=[d1b5f2b967f271738c7def3d2b741793]
link gpu1_comp to job1--><path d="M1846.875,1753.6562 C1846.875,1753.6562 1846.875,3168.5625 1846.875,3168.5625 " fill="none" id="gpu1_comp-&gt;job1" style="stroke: #333333; stroke-width: 3.125;"/><polygon fill="#333333" points="1846.875,3184.1875,1859.375,3156.0625,1846.875,3168.5625,1834.375,3156.0625,1846.875,3184.1875" style="stroke: #333333; stroke-width: 3.125;"/><text fill="#008000" font-family="Arial" font-size="37.5" font-weight="bold" lengthAdjust="spacingAndGlyphs" textLength="243.75" x="1918.75" y="2384.8083">Job Control</text><!--MD5=[a25f7dd840a4af3dd0e24e415ef34e3a]
link gpu1_comp to nvlink1--><path d="M1925.875,1621.875 C2105.3438,1621.875 2290.625,1621.875 2290.625,1621.875 C2290.625,1621.875 2290.625,3140.2813 2290.625,3140.2813 " fill="none" id="gpu1_comp-&gt;nvlink1" style="stroke: #333333; stroke-width: 3.125;"/><polygon fill="#333333" points="2290.625,3155.9063,2303.125,3127.7813,2290.625,3140.2813,2278.125,3127.7813,2290.625,3155.9063" style="stroke: #333333; stroke-width: 3.125;"/><text fill="#FF0000" font-family="Arial" font-size="37.5" font-weight="bold" lengthAdjust="spacingAndGlyphs" textLength="306.25" x="2293.75" y="2384.8083">Data Transfer</text><!--MD5=[d9da8fa418514c82f78becc135733f57]
link gpu2_comp to job2--><path d="M1090.625,2254 C1090.625,2254 1090.625,3140.5 1090.625,3140.5 " fill="none" id="gpu2_comp-&gt;job2" style="stroke: #333333; stroke-width: 3.125;"/><polygon fill="#333333" points="1090.625,3156.125,1103.125,3128,1090.625,3140.5,1078.125,3128,1090.625,3156.125" style="stroke: #333333; stroke-width: 3.125;"/><text fill="#008000" font-family="Arial" font-size="37.5" font-weight="bold" lengthAdjust="spacingAndGlyphs" textLength="243.75" x="1053.125" y="2634.8083">Job Control</text><!--MD5=[f160e9c5154fc9aeb18549121a1fd738]
link gpu2_comp to nvlink2--><path d="M1337.5,2254 C1337.5,2254 1337.5,3168.2813 1337.5,3168.2813 " fill="none" id="gpu2_comp-&gt;nvlink2" style="stroke: #333333; stroke-width: 3.125;"/><polygon fill="#333333" points="1337.5,3183.9063,1350,3155.7813,1337.5,3168.2813,1325,3155.7813,1337.5,3183.9063" style="stroke: #333333; stroke-width: 3.125;"/><text fill="#FF0000" font-family="Arial" font-size="37.5" font-weight="bold" lengthAdjust="spacingAndGlyphs" textLength="306.25" x="1521.875" y="2634.8083">Data Transfer</text><!--MD5=[6250127e4b50107ed765cb5ea46e39f5]
link gpu3_comp to job3--><path d="M290.625,2754 C290.625,2754 290.625,3140.2188 290.625,3140.2188 " fill="none" id="gpu3_comp-&gt;job3" style="stroke: #333333; stroke-width: 3.125;"/><polygon fill="#333333" points="290.625,3155.8438,303.125,3127.7188,290.625,3140.2188,278.125,3127.7188,290.625,3155.8438" style="stroke: #333333; stroke-width: 3.125;"/><text fill="#008000" font-family="Arial" font-size="37.5" font-weight="bold" lengthAdjust="spacingAndGlyphs" textLength="243.75" x="293.75" y="2941.0583">Job Control</text><!--MD5=[a6eb2bc399168ba1f037a7d7d1dc24e1]
link gpu3_comp to nvlink3--><path d="M676.5625,2754 C676.5625,2754 676.5625,3140.2188 676.5625,3140.2188 " fill="none" id="gpu3_comp-&gt;nvlink3" style="stroke: #333333; stroke-width: 3.125;"/><polygon fill="#333333" points="676.5625,3155.8438,689.0625,3127.7188,676.5625,3140.2188,664.0625,3127.7188,676.5625,3155.8438" style="stroke: #333333; stroke-width: 3.125;"/><text fill="#FF0000" font-family="Arial" font-size="37.5" font-weight="bold" lengthAdjust="spacingAndGlyphs" textLength="306.25" x="668.75" y="2941.0583">Data Transfer</text><!--MD5=[424076840a8418e4552a46ab87f786a3]
link job0 to a100_0--><path d="M2690.625,3212.7188 C2690.625,3212.7188 2690.625,3614.4063 2690.625,3614.4063 " fill="none" id="job0-&gt;a100_0" style="stroke: #333333; stroke-width: 3.125;"/><polygon fill="#333333" points="2690.625,3630.0313,2703.125,3601.9063,2690.625,3614.4063,2678.125,3601.9063,2690.625,3630.0313" style="stroke: #333333; stroke-width: 3.125;"/><text fill="#000000" font-family="Arial" font-size="37.5" lengthAdjust="spacingAndGlyphs" textLength="71.875" x="2668.75" y="3456.6833">TCP</text><!--MD5=[46e420a3681fcba877fc853485c9187c]
link nvlink0 to a100_0--><path d="M3114.75,3184.375 C3039.0938,3184.375 2841.4063,3184.375 2841.4063,3184.375 C2841.4063,3184.375 2841.4063,3615.3438 2841.4063,3615.3438 " fill="none" id="nvlink0-&gt;a100_0" style="stroke: #333333; stroke-width: 3.125;"/><polygon fill="#333333" points="2841.4063,3630.9688,2853.9063,3602.8438,2841.4063,3615.3438,2828.9063,3602.8438,2841.4063,3630.9688" style="stroke: #333333; stroke-width: 3.125;"/><text fill="#000000" font-family="Arial" font-size="37.5" lengthAdjust="spacingAndGlyphs" textLength="71.875" x="3112.5" y="3456.6833">TCP</text><!--MD5=[9f9a808a1370ba672b50d7717eb05713]
link job1 to a100_1--><path d="M1890.625,3212.7188 C1890.625,3212.7188 1890.625,3614.4063 1890.625,3614.4063 " fill="none" id="job1-&gt;a100_1" style="stroke: #333333; stroke-width: 3.125;"/><polygon fill="#333333" points="1890.625,3630.0313,1903.125,3601.9063,1890.625,3614.4063,1878.125,3601.9063,1890.625,3630.0313" style="stroke: #333333; stroke-width: 3.125;"/><text fill="#000000" font-family="Arial" font-size="37.5" lengthAdjust="spacingAndGlyphs" textLength="71.875" x="1943.75" y="3456.6833">TCP</text><!--MD5=[47dd9f6fd55be5e6b44447497d7199c4]
link nvlink1 to a100_1--><path d="M2192.9688,3184.8125 C2192.9688,3184.8125 2192.9688,3614.1563 2192.9688,3614.1563 " fill="none" id="nvlink1-&gt;a100_1" style="stroke: #333333; stroke-width: 3.125;"/><polygon fill="#333333" points="2192.9688,3629.7813,2205.4688,3601.6563,2192.9688,3614.1563,2180.4688,3601.6563,2192.9688,3629.7813" style="stroke: #333333; stroke-width: 3.125;"/><text fill="#000000" font-family="Arial" font-size="37.5" lengthAdjust="spacingAndGlyphs" textLength="71.875" x="2196.875" y="3456.6833">TCP</text><!--MD5=[415c857efa3d6f5e641174d2a9c3ff61]
link job2 to a100_2--><path d="M1186.7188,3184.8125 C1186.7188,3184.8125 1186.7188,3614.1563 1186.7188,3614.1563 " fill="none" id="job2-&gt;a100_2" style="stroke: #333333; stroke-width: 3.125;"/><polygon fill="#333333" points="1186.7188,3629.7813,1199.2188,3601.6563,1186.7188,3614.1563,1174.2188,3601.6563,1186.7188,3629.7813" style="stroke: #333333; stroke-width: 3.125;"/><text fill="#000000" font-family="Arial" font-size="37.5" lengthAdjust="spacingAndGlyphs" textLength="71.875" x="1165.625" y="3456.6833">TCP</text><!--MD5=[f1cc598c349f3279b1a67412ef68090e]
link nvlink2 to a100_2--><path d="M1489.8438,3212.7188 C1489.8438,3212.7188 1489.8438,3614.4063 1489.8438,3614.4063 " fill="none" id="nvlink2-&gt;a100_2" style="stroke: #333333; stroke-width: 3.125;"/><polygon fill="#333333" points="1489.8438,3630.0313,1502.3438,3601.9063,1489.8438,3614.4063,1477.3438,3601.9063,1489.8438,3630.0313" style="stroke: #333333; stroke-width: 3.125;"/><text fill="#000000" font-family="Arial" font-size="37.5" lengthAdjust="spacingAndGlyphs" textLength="71.875" x="1443.75" y="3456.6833">TCP</text><!--MD5=[6552893a206463f453e33f3df1e3d78e]
link job3 to a100_3--><path d="M290.625,3212.8125 C290.625,3332.6563 290.625,3790.625 290.625,3790.625 C290.625,3790.625 538.75,3790.625 538.75,3790.625 " fill="none" id="job3-&gt;a100_3" style="stroke: #333333; stroke-width: 3.125;"/><polygon fill="#333333" points="554.375,3790.625,526.25,3778.125,538.75,3790.625,526.25,3803.125,554.375,3790.625" style="stroke: #333333; stroke-width: 3.125;"/><text fill="#000000" font-family="Arial" font-size="37.5" lengthAdjust="spacingAndGlyphs" textLength="71.875" x="415.625" y="3456.6833">TCP</text><!--MD5=[c9599f921e8de4d44a9053079d67d9a5]
link nvlink3 to a100_3--><path d="M707.0313,3212.7188 C707.0313,3212.7188 707.0313,3614.4063 707.0313,3614.4063 " fill="none" id="nvlink3-&gt;a100_3" style="stroke: #333333; stroke-width: 3.125;"/><polygon fill="#333333" points="707.0313,3630.0313,719.5313,3601.9063,707.0313,3614.4063,694.5313,3601.9063,707.0313,3630.0313" style="stroke: #333333; stroke-width: 3.125;"/><text fill="#000000" font-family="Arial" font-size="37.5" lengthAdjust="spacingAndGlyphs" textLength="71.875" x="715.625" y="3456.6833">TCP</text><!--MD5=[f37f2c353cfba599c68b1b85d927f4e8]
link sst_layer to GMN54--><path d="M2026.1089,646.875 C2026.8416,646.875 2027.5886,646.875 2028.3499,646.875 C2034.4398,646.875 2041.4398,646.875 2049.2798,646.875 C2080.6396,646.875 2125.4395,646.875 2179.1992,646.875 C2286.7188,646.875 2430.0781,646.875 2573.4375,646.875 C2860.1563,646.875 3146.875,646.875 3146.875,646.875 C3146.875,646.875 3146.875,771.0625 3146.875,871.5 " fill="none" id="sst_layer-GMN54" style="stroke: #333333; stroke-width: 3.125; stroke-dasharray: 7.0,7.0;"/><rect fill="#DDDDDD" height="247.4609" rx="15.625" ry="15.625" style="stroke: #000000; stroke-width: 3.125;" width="831.25" x="2778.125" y="4103.125"/><text fill="#008000" font-family="Arial" font-size="43.75" font-weight="bold" lengthAdjust="spacingAndGlyphs" textLength="153.125" x="2796.875" y="4165.6097">Green</text><text fill="#000000" font-family="Arial" font-size="43.75" font-weight="bold" lengthAdjust="spacingAndGlyphs" textLength="0" x="2965.625" y="4165.6097"/><text fill="#000000" font-family="Arial" font-size="43.75" font-weight="bold" lengthAdjust="spacingAndGlyphs" textLength="0" x="2981.25" y="4165.6097"/><text fill="#000000" font-family="Arial" font-size="43.75" font-weight="bold" lengthAdjust="spacingAndGlyphs" textLength="193.75" x="2981.25" y="4165.6097">Job Port</text><text fill="#000000" font-family="Arial" font-size="43.75" font-weight="bold" lengthAdjust="spacingAndGlyphs" textLength="337.5" x="3190.625" y="4165.6097">(Low-volume)</text><text fill="#FF0000" font-family="Arial" font-size="43.75" font-weight="bold" lengthAdjust="spacingAndGlyphs" textLength="93.75" x="2796.875" y="4216.5375">Red</text><text fill="#000000" font-family="Arial" font-size="43.75" lengthAdjust="spacingAndGlyphs" textLength="0" x="2903.125" y="4216.5375"/><text fill="#000000" font-family="Arial" font-size="43.75" lengthAdjust="spacingAndGlyphs" textLength="0" x="2978.125" y="4216.5375"/><text fill="#000000" font-family="Arial" font-size="43.75" font-weight="bold" lengthAdjust="spacingAndGlyphs" textLength="287.5" x="2978.125" y="4216.5375">NVLink Port</text><text fill="#000000" font-family="Arial" font-size="43.75" lengthAdjust="spacingAndGlyphs" textLength="300" x="3278.125" y="4216.5375">(High-volume)</text><text fill="#000000" filter="url(#b1bwezu1krzlw20)" font-family="Arial" font-size="43.75" lengthAdjust="spacingAndGlyphs" textLength="0" x="2846.875" y="4267.4652"/><text fill="#000000" font-family="Arial" font-size="43.75" lengthAdjust="spacingAndGlyphs" textLength="0" x="2859.375" y="4267.4652"/><text fill="#000000" font-family="Arial" font-size="43.75" lengthAdjust="spacingAndGlyphs" textLength="0" x="2978.125" y="4267.4652"/><text fill="#000000" font-family="Arial" font-size="43.75" font-weight="bold" lengthAdjust="spacingAndGlyphs" textLength="246.875" x="2978.125" y="4267.4652">SST Layer</text><text fill="#000000" font-family="Arial" font-size="43.75" lengthAdjust="spacingAndGlyphs" textLength="0" x="3237.5" y="4267.4652"/><text fill="#000000" filter="url(#b1bwezu1krzlw21)" font-family="Arial" font-size="43.75" lengthAdjust="spacingAndGlyphs" textLength="0" x="2846.875" y="4318.3929"/><text fill="#000000" font-family="Arial" font-size="43.75" lengthAdjust="spacingAndGlyphs" textLength="0" x="2859.375" y="4318.3929"/><text fill="#000000" font-family="Arial" font-size="43.75" lengthAdjust="spacingAndGlyphs" textLength="0" x="2978.125" y="4318.3929"/><text fill="#000000" font-family="Arial" font-size="43.75" font-weight="bold" lengthAdjust="spacingAndGlyphs" textLength="371.875" x="2978.125" y="4318.3929">ACALSim Layer</text><text fill="#000000" font-family="Arial" font-size="43.75" lengthAdjust="spacingAndGlyphs" textLength="0" x="3362.5" y="4318.3929"/><line style="stroke: #000000; stroke-width: 3.125;" x1="2796.875" x2="3590.625" y1="4125" y2="4125"/><line style="stroke: #000000; stroke-width: 3.125;" x1="2796.875" x2="3590.625" y1="4175.9277" y2="4175.9277"/><line style="stroke: #000000; stroke-width: 3.125;" x1="2796.875" x2="3590.625" y1="4226.8555" y2="4226.8555"/><line style="stroke: #000000; stroke-width: 3.125;" x1="2796.875" x2="3590.625" y1="4277.7832" y2="4277.7832"/><line style="stroke: #000000; stroke-width: 3.125;" x1="2796.875" x2="3590.625" y1="4328.7109" y2="4328.7109"/><line style="stroke: #000000; stroke-width: 3.125;" x1="2796.875" x2="2796.875" y1="4125" y2="4328.7109"/><line style="stroke: #000000; stroke-width: 3.125;" x1="2965.625" x2="2965.625" y1="4125" y2="4328.7109"/><line style="stroke: #000000; stroke-width: 3.125;" x1="3590.625" x2="3590.625" y1="4125" y2="4328.7109"/><!--MD5=[af8e08f1d417b7155dd96fbed870864b]
@startuml
skinparam componentStyle rectangle
skinparam backgroundColor white
skinparam defaultFontSize 14
skinparam defaultFontName Arial
skinparam titleFontSize 18
skinparam titleFontStyle bold
skinparam componentFontSize 14
skinparam packageFontSize 16
skinparam noteFontSize 12
skinparam arrowFontSize 12
skinparam arrowColor #333333
skinparam linetype ortho
skinparam dpi 300


package "SST Process (Orchestration Layer)" as sst_layer #LightBlue {
  
  component "**HostSchedulerComponent**\n\nWorkload Distribution\nLoad Balancing" as scheduler #LightGreen
  
  component "**GPUDeviceComponent 0**\n\nJob Port Wrapper\nNVLink Port Wrapper" as gpu0_comp #LightYellow
  
  component "**GPUDeviceComponent 1**\n\nJob Port Wrapper\nNVLink Port Wrapper" as gpu1_comp #LightYellow
  
  component "**GPUDeviceComponent 2**\n\nJob Port Wrapper\nNVLink Port Wrapper" as gpu2_comp #LightYellow
  
  component "**GPUDeviceComponent 3**\n\nJob Port Wrapper\nNVLink Port Wrapper" as gpu3_comp #LightYellow
  
  scheduler -down-> gpu0_comp : **Job**\n**Distribution**
  scheduler -down-> gpu1_comp : **Job**\n**Distribution**
  scheduler -down-> gpu2_comp : **Job**\n**Distribution**
  scheduler -down-> gpu3_comp : **Job**\n**Distribution**
  
  gpu0_comp <-[#FF6B6B,thickness=4]-> gpu1_comp : <color:red>**NVLink**</color>
  gpu0_comp <-[#FF6B6B,thickness=4]-> gpu2_comp : <color:red>**NVLink**</color>
  gpu0_comp <-[#FF6B6B,thickness=4]-> gpu3_comp : <color:red>**NVLink**</color>
  gpu1_comp <-[#FF6B6B,thickness=4]-> gpu2_comp : <color:red>**NVLink**</color>
  gpu1_comp <-[#FF6B6B,thickness=4]-> gpu3_comp : <color:red>**NVLink**</color>
  gpu2_comp <-[#FF6B6B,thickness=4]-> gpu3_comp : <color:red>**NVLink**</color>
}

interface "**Job Port**\n**:9100**" as job0 #98FB98
interface "**NVLink Port**\n**:9200**" as nvlink0 #FFB6C1

interface "**Job Port**\n**:9101**" as job1 #98FB98
interface "**NVLink Port**\n**:9201**" as nvlink1 #FFB6C1

interface "**Job Port**\n**:9102**" as job2 #98FB98
interface "**NVLink Port**\n**:9202**" as nvlink2 #FFB6C1

interface "**Job Port**\n**:9103**" as job3 #98FB98
interface "**NVLink Port**\n**:9203**" as nvlink3 #FFB6C1

gpu0_comp -down-> job0 : <color:green>**Job Control**</color>\n<color:green>**(Low-volume)**</color>
gpu0_comp -down-> nvlink0 : <color:red>**Data Transfer**</color>\n<color:red>**(High-volume)**</color>

gpu1_comp -down-> job1 : <color:green>**Job Control**</color>
gpu1_comp -down-> nvlink1 : <color:red>**Data Transfer**</color>

gpu2_comp -down-> job2 : <color:green>**Job Control**</color>
gpu2_comp -down-> nvlink2 : <color:red>**Data Transfer**</color>

gpu3_comp -down-> job3 : <color:green>**Job Control**</color>
gpu3_comp -down-> nvlink3 : <color:red>**Data Transfer**</color>

package "ACALSim A100 Processes (Independent)" as acalsim_layer #LightCoral {
  
  component "**A100-0**\n**ACALSim Process**\n\nCycle-Accurate\n2-Phase Execution" as a100_0 #FFE4B5
  
  component "**A100-1**\n**ACALSim Process**\n\nCycle-Accurate\n2-Phase Execution" as a100_1 #FFE4B5
  
  component "**A100-2**\n**ACALSim Process**\n\nCycle-Accurate\n2-Phase Execution" as a100_2 #FFE4B5
  
  component "**A100-3**\n**ACALSim Process**\n\nCycle-Accurate\n2-Phase Execution" as a100_3 #FFE4B5
}

job0 -down-> a100_0 : TCP
nvlink0 -down-> a100_0 : TCP

job1 -down-> a100_1 : TCP
nvlink1 -down-> a100_1 : TCP

job2 -down-> a100_2 : TCP
nvlink2 -down-> a100_2 : TCP

job3 -down-> a100_3 : TCP
nvlink3 -down-> a100_3 : TCP

note right of scheduler
  **HostSchedulerComponent**
  
  • Inference request distribution
  • Load balancing
  • Job scheduling
end note

note left of gpu0_comp
  **GPUDeviceComponent**
  
  Job Port:
  • Job submission
  • Completion notifications
  
  NVLink Port:
  • Tensor sharding
  • KV cache migration
end note

note bottom of sst_layer
  **NVLink SST::Link**
  
  • Full-mesh topology
  • Configurable latency/bandwidth
  • Non-blocking routing
end note

note right of a100_0
  **ACALSim A100**
  
  • Cycle-accurate simulation
  • 2-phase execution
  • Process isolation
  • One GPU per process
end note


legend right
  |<color:green>**Green**</color> | **Job Port** (Low-volume) |
  |<color:red>**Red**</color> | **NVLink Port** (High-volume) |
  |<back:LightBlue>    </back> | **SST Layer** |
  |<back:LightCoral>    </back> | **ACALSim Layer** |
endlegend

@enduml

PlantUML version 1.2020.02(Sun Mar 01 18:22:07 CST 2020)
(GPL source distribution)
Java Runtime: OpenJDK Runtime Environment
JVM: OpenJDK 64-Bit Server VM
Java Version: 11.0.29+7-post-Ubuntu-1ubuntu122.04
Operating System: Linux
Default Encoding: UTF-8
Language: en
Country: US
--></g></svg>
