<svg xmlns="http://www.w3.org/2000/svg" xmlns:xlink="http://www.w3.org/1999/xlink" contentStyleType="text/css" height="1443px" preserveAspectRatio="none" style="width:917px;height:1443px;background:#FFFFFF;" version="1.1" viewBox="0 0 917 1443" width="917px" zoomAndPan="magnify"><defs/><g><!--class SimTop--><g id="elem_SimTop"><rect codeLine="1" fill="#F1F1F1" height="80.5938" id="SimTop" rx="2.5" ry="2.5" style="stroke:#181818;stroke-width:0.5;" width="143.4346" x="469.43" y="7"/><ellipse cx="510.9875" cy="23" fill="#ADD1B2" rx="11" ry="11" style="stroke:#181818;stroke-width:1;"/><path d="M513.9562,28.6406 Q513.3781,28.9375 512.7375,29.0781 Q512.0968,29.2344 511.3937,29.2344 Q508.8937,29.2344 507.5656,27.5938 Q506.2531,25.9375 506.2531,22.8125 Q506.2531,19.6875 507.5656,18.0313 Q508.8937,16.375 511.3937,16.375 Q512.0968,16.375 512.7375,16.5313 Q513.3937,16.6875 513.9562,16.9844 L513.9562,19.7031 Q513.3312,19.125 512.7375,18.8594 Q512.1437,18.5781 511.5187,18.5781 Q510.175,18.5781 509.4875,19.6563 Q508.8,20.7188 508.8,22.8125 Q508.8,24.9063 509.4875,25.9844 Q510.175,27.0469 511.5187,27.0469 Q512.1437,27.0469 512.7375,26.7813 Q513.3312,26.5 513.9562,25.9219 L513.9562,28.6406 Z " fill="#000000"/><text fill="#000000" font-family="sans-serif" font-size="14" lengthAdjust="spacing" textLength="52.418" x="530.8891" y="27.8467">SimTop</text><line style="stroke:#181818;stroke-width:0.5;" x1="470.43" x2="611.8646" y1="39" y2="39"/><line style="stroke:#181818;stroke-width:0.5;" x1="470.43" x2="611.8646" y1="47" y2="47"/><ellipse cx="480.43" cy="60.6484" fill="#84BE84" rx="3" ry="3" style="stroke:#038048;stroke-width:1;"/><text fill="#000000" font-family="sans-serif" font-size="14" lengthAdjust="spacing" textLength="77.9844" x="489.43" y="63.9951">initConfig()</text><ellipse cx="480.43" cy="76.9453" fill="#84BE84" rx="3" ry="3" style="stroke:#038048;stroke-width:1;"/><text fill="#000000" font-family="sans-serif" font-size="14" font-style="italic" lengthAdjust="spacing" textLength="117.4346" x="489.43" y="80.292">registerConfigs()</text></g><!--class CLIManager--><g id="elem_CLIManager"><rect codeLine="6" fill="#F1F1F1" height="259.8594" id="CLIManager" rx="2.5" ry="2.5" style="stroke:#181818;stroke-width:0.5;" width="325.5439" x="378.38" y="147.59"/><ellipse cx="495.3668" cy="163.59" fill="#ADD1B2" rx="11" ry="11" style="stroke:#181818;stroke-width:1;"/><path d="M498.3356,169.2306 Q497.7574,169.5275 497.1168,169.6681 Q496.4762,169.8244 495.7731,169.8244 Q493.2731,169.8244 491.9449,168.1837 Q490.6324,166.5275 490.6324,163.4025 Q490.6324,160.2775 491.9449,158.6212 Q493.2731,156.965 495.7731,156.965 Q496.4762,156.965 497.1168,157.1212 Q497.7731,157.2775 498.3356,157.5744 L498.3356,160.2931 Q497.7106,159.715 497.1168,159.4494 Q496.5231,159.1681 495.8981,159.1681 Q494.5543,159.1681 493.8668,160.2462 Q493.1793,161.3087 493.1793,163.4025 Q493.1793,165.4962 493.8668,166.5744 Q494.5543,167.6369 495.8981,167.6369 Q496.5231,167.6369 497.1168,167.3712 Q497.7106,167.09 498.3356,166.5119 L498.3356,169.2306 Z " fill="#000000"/><text fill="#000000" font-family="sans-serif" font-size="14" lengthAdjust="spacing" textLength="83.0703" x="515.8668" y="168.4367">CLIManager</text><line style="stroke:#181818;stroke-width:0.5;" x1="379.38" x2="702.9239" y1="179.59" y2="179.59"/><polygon fill="none" points="389.38,188.2384,393.38,192.2384,389.38,196.2384,385.38,192.2384" style="stroke:#B38D22;stroke-width:1;"/><text fill="#000000" font-family="sans-serif" font-size="14" lengthAdjust="spacing" textLength="224.2393" x="398.38" y="196.5851">tracingJsonFileName: std::string</text><polygon fill="none" points="389.38,204.5353,393.38,208.5353,389.38,212.5353,385.38,208.5353" style="stroke:#B38D22;stroke-width:1;"/><text fill="#000000" font-family="sans-serif" font-size="14" lengthAdjust="spacing" textLength="179.1289" x="398.38" y="212.882">configFilePath: std::string</text><polygon fill="none" points="389.38,220.8322,393.38,224.8322,389.38,228.8322,385.38,224.8322" style="stroke:#B38D22;stroke-width:1;"/><text fill="#000000" font-family="sans-serif" font-size="14" lengthAdjust="spacing" textLength="116.0537" x="398.38" y="229.1789">gTestMode: bool</text><rect fill="none" height="6" style="stroke:#C82930;stroke-width:1;" width="6" x="386.38" y="239.1291"/><text fill="#000000" font-family="sans-serif" font-size="14" lengthAdjust="spacing" textLength="94.0078" x="398.38" y="245.4757">app: CLI::App</text><rect fill="none" height="6" style="stroke:#C82930;stroke-width:1;" width="6" x="386.38" y="255.4259"/><text fill="#000000" font-family="sans-serif" font-size="14" lengthAdjust="spacing" textLength="299.5439" x="398.38" y="261.7726">cliParameters: std::vector&lt;CLIParameter&gt;</text><line style="stroke:#181818;stroke-width:0.5;" x1="379.38" x2="702.9239" y1="269.0744" y2="269.0744"/><ellipse cx="389.38" cy="282.7228" fill="#84BE84" rx="3" ry="3" style="stroke:#038048;stroke-width:1;"/><text fill="#000000" font-family="sans-serif" font-size="14" lengthAdjust="spacing" textLength="101.0488" x="398.38" y="286.0695">isGTestMode()</text><polygon fill="#FFFF44" points="389.38,294.0197,393.38,298.0197,389.38,302.0197,385.38,298.0197" style="stroke:#B38D22;stroke-width:1;"/><text fill="#000000" font-family="sans-serif" font-size="14" font-style="italic" lengthAdjust="spacing" textLength="163.9258" x="398.38" y="302.3664">registerCLIArguments()</text><polygon fill="#FFFF44" points="389.38,310.3166,393.38,314.3166,389.38,318.3166,385.38,314.3166" style="stroke:#B38D22;stroke-width:1;"/><text fill="#000000" font-family="sans-serif" font-size="14" lengthAdjust="spacing" textLength="227.0693" x="398.38" y="318.6632">registerACALSimCLIArguments()</text><polygon fill="#FFFF44" points="389.38,326.6134,393.38,330.6134,389.38,334.6134,385.38,330.6134" style="stroke:#B38D22;stroke-width:1;"/><text fill="#000000" font-family="sans-serif" font-size="14" lengthAdjust="spacing" textLength="157.623" x="398.38" y="334.9601">getCLIApp(): CLI::App*</text><polygon fill="#FFFF44" points="389.38,342.9103,393.38,346.9103,389.38,350.9103,385.38,346.9103" style="stroke:#B38D22;stroke-width:1;"/><text fill="#000000" font-family="sans-serif" font-size="14" lengthAdjust="spacing" textLength="223.2344" x="398.38" y="351.257">setCLIParametersToSimConfig()</text><polygon fill="#FFFF44" points="389.38,359.2072,393.38,363.2072,389.38,367.2072,385.38,363.2072" style="stroke:#B38D22;stroke-width:1;"/><text fill="#000000" font-family="sans-serif" font-size="14" lengthAdjust="spacing" textLength="199.7324" x="398.38" y="367.5539">addCLIOption(): CLI::Option*</text><polygon fill="#FFFF44" points="389.38,375.5041,393.38,379.5041,389.38,383.5041,385.38,379.5041" style="stroke:#B38D22;stroke-width:1;"/><text fill="#000000" font-family="sans-serif" font-size="14" lengthAdjust="spacing" textLength="148.7568" x="398.38" y="383.8507">parseCLIArguments()</text><rect fill="#F24D5C" height="6" style="stroke:#C82930;stroke-width:1;" width="6" x="386.38" y="393.8009"/><text fill="#000000" font-family="sans-serif" font-size="14" lengthAdjust="spacing" textLength="132.4463" x="398.38" y="400.1476">addCLIParameter()</text></g><!--class CLIParameter--><g id="elem_CLIParameter"><rect codeLine="22" fill="#F1F1F1" height="113.1875" id="CLIParameter" rx="2.5" ry="2.5" style="stroke:#181818;stroke-width:0.5;" width="270.2959" x="7" y="500.05"/><ellipse cx="90.313" cy="516.05" fill="#F1F1F1" rx="11" ry="11" style="stroke:#181818;stroke-width:1;"/><path d="M89.7974,516.6125 Q87.938,515.9094 87.2817,515.1438 Q86.6411,514.3625 86.6411,513.05 Q86.6411,511.3625 87.7192,510.3937 Q88.7974,509.425 90.6724,509.425 Q91.5317,509.425 92.3755,509.6281 Q93.2349,509.8156 94.0786,510.2062 L94.0786,512.5969 Q93.2974,512.0344 92.4692,511.7531 Q91.6567,511.4562 90.8599,511.4562 Q89.9849,511.4562 89.5005,511.8156 Q89.0317,512.175 89.0317,512.8313 Q89.0317,513.3469 89.3755,513.6906 Q89.7192,514.0188 90.813,514.425 L91.8755,514.8313 Q93.3599,515.3781 94.063,516.2844 Q94.7817,517.1906 94.7817,518.5656 Q94.7817,520.4406 93.6724,521.3625 Q92.563,522.2844 90.313,522.2844 Q89.3911,522.2844 88.4692,522.0656 Q87.5474,521.8469 86.688,521.425 L86.688,518.8938 Q87.6567,519.5813 88.5786,519.925 Q89.5005,520.2688 90.3911,520.2688 Q91.2974,520.2688 91.7974,519.8625 Q92.2974,519.4406 92.2974,518.7063 Q92.2974,518.1438 91.9536,517.7375 Q91.6255,517.3156 91.0005,517.0656 L89.7974,516.6125 Z " fill="#000000"/><text fill="#000000" font-family="sans-serif" font-size="14" lengthAdjust="spacing" textLength="95.1699" x="110.813" y="520.8967">CLIParameter</text><line style="stroke:#181818;stroke-width:0.5;" x1="8" x2="276.2959" y1="532.05" y2="532.05"/><ellipse cx="18" cy="545.6984" fill="none" rx="3" ry="3" style="stroke:#038048;stroke-width:1;"/><text fill="#000000" font-family="sans-serif" font-size="14" lengthAdjust="spacing" textLength="123.2998" x="27" y="549.0451">config: std::string</text><ellipse cx="18" cy="561.9953" fill="none" rx="3" ry="3" style="stroke:#038048;stroke-width:1;"/><text fill="#000000" font-family="sans-serif" font-size="14" lengthAdjust="spacing" textLength="125.8975" x="27" y="565.342">param: std::string</text><line style="stroke:#181818;stroke-width:0.5;" x1="8" x2="276.2959" y1="572.6438" y2="572.6438"/><ellipse cx="18" cy="586.2922" fill="#84BE84" rx="3" ry="3" style="stroke:#038048;stroke-width:1;"/><text fill="#000000" font-family="sans-serif" font-size="14" lengthAdjust="spacing" textLength="244.2959" x="27" y="589.6389">updateFunc: std::function&lt;void()&gt;</text><ellipse cx="18" cy="602.5891" fill="#84BE84" rx="3" ry="3" style="stroke:#038048;stroke-width:1;"/><text fill="#000000" font-family="sans-serif" font-size="14" lengthAdjust="spacing" textLength="71.1348" x="27" y="605.9357">operator()</text></g><!--class SimConfigManager--><g id="elem_SimConfigManager"><rect codeLine="29" fill="#F1F1F1" height="178.375" id="SimConfigManager" rx="2.5" ry="2.5" style="stroke:#181818;stroke-width:0.5;" width="458.6943" x="311.8" y="467.45"/><ellipse cx="470.5476" cy="483.45" fill="#ADD1B2" rx="11" ry="11" style="stroke:#181818;stroke-width:1;"/><path d="M473.5163,489.0906 Q472.9382,489.3875 472.2976,489.5281 Q471.6569,489.6844 470.9538,489.6844 Q468.4538,489.6844 467.1257,488.0437 Q465.8132,486.3875 465.8132,483.2625 Q465.8132,480.1375 467.1257,478.4812 Q468.4538,476.825 470.9538,476.825 Q471.6569,476.825 472.2976,476.9812 Q472.9538,477.1375 473.5163,477.4344 L473.5163,480.1531 Q472.8913,479.575 472.2976,479.3094 Q471.7038,479.0281 471.0788,479.0281 Q469.7351,479.0281 469.0476,480.1062 Q468.3601,481.1687 468.3601,483.2625 Q468.3601,485.3562 469.0476,486.4344 Q469.7351,487.4969 471.0788,487.4969 Q471.7038,487.4969 472.2976,487.2312 Q472.8913,486.95 473.5163,486.3719 L473.5163,489.0906 Z " fill="#000000"/><text fill="#000000" font-family="sans-serif" font-size="14" lengthAdjust="spacing" textLength="132.6992" x="491.0476" y="488.2967">SimConfigManager</text><line style="stroke:#181818;stroke-width:0.5;" x1="312.8" x2="769.4943" y1="499.45" y2="499.45"/><rect fill="none" height="6" style="stroke:#C82930;stroke-width:1;" width="6" x="319.8" y="510.0984"/><text fill="#000000" font-family="sans-serif" font-size="14" lengthAdjust="spacing" textLength="352.2148" x="331.8" y="516.4451">configs: unordered_map&lt;std::string, SimConfig*&gt;</text><line style="stroke:#181818;stroke-width:0.5;" x1="312.8" x2="769.4943" y1="523.7469" y2="523.7469"/><ellipse cx="322.8" cy="537.3953" fill="#84BE84" rx="3" ry="3" style="stroke:#038048;stroke-width:1;"/><text fill="#000000" font-family="sans-serif" font-size="14" lengthAdjust="spacing" textLength="216.207" x="331.8" y="540.742">getParameter() : template&lt;T&gt;</text><ellipse cx="322.8" cy="553.6922" fill="#84BE84" rx="3" ry="3" style="stroke:#038048;stroke-width:1;"/><text fill="#000000" font-family="sans-serif" font-size="14" lengthAdjust="spacing" textLength="432.6943" x="331.8" y="557.0389">getParameterMemberData() : template&lt;T_Stuct, T_Member&gt;</text><polygon fill="#FFFF44" points="322.8,564.9891,326.8,568.9891,322.8,572.9891,318.8,568.9891" style="stroke:#B38D22;stroke-width:1;"/><text fill="#000000" font-family="sans-serif" font-size="14" lengthAdjust="spacing" textLength="405.2344" x="331.8" y="573.3357">updateParameter() : template &lt;T_Type, T_Struct = void&gt;</text><polygon fill="#FFFF44" points="322.8,581.2859,326.8,585.2859,322.8,589.2859,318.8,585.2859" style="stroke:#B38D22;stroke-width:1;"/><text fill="#000000" font-family="sans-serif" font-size="14" lengthAdjust="spacing" textLength="119.417" x="331.8" y="589.6326">parseConfigFile()</text><polygon fill="#FFFF44" points="322.8,597.5828,326.8,601.5828,322.8,605.5828,318.8,601.5828" style="stroke:#B38D22;stroke-width:1;"/><text fill="#000000" font-family="sans-serif" font-size="14" lengthAdjust="spacing" textLength="82.1953" x="331.8" y="605.9295">addConfig()</text><polygon fill="#FFFF44" points="322.8,613.8797,326.8,617.8797,322.8,621.8797,318.8,617.8797" style="stroke:#B38D22;stroke-width:1;"/><text fill="#000000" font-family="sans-serif" font-size="14" font-style="italic" lengthAdjust="spacing" textLength="117.4346" x="331.8" y="622.2264">registerConfigs()</text><rect fill="#F24D5C" height="6" style="stroke:#C82930;stroke-width:1;" width="6" x="319.8" y="632.1766"/><text fill="#000000" font-family="sans-serif" font-size="14" lengthAdjust="spacing" textLength="166.332" x="331.8" y="638.5232">getConfig(): SimConfig*</text></g><!--class SimConfig--><g id="elem_SimConfig"><rect codeLine="40" fill="#F1F1F1" height="210.9688" id="SimConfig" rx="2.5" ry="2.5" style="stroke:#181818;stroke-width:0.5;" width="468.9004" x="306.7" y="705.83"/><ellipse cx="501.2337" cy="721.83" fill="#ADD1B2" rx="11" ry="11" style="stroke:#181818;stroke-width:1;"/><path d="M504.2024,727.4706 Q503.6243,727.7675 502.9837,727.9081 Q502.3431,728.0644 501.6399,728.0644 Q499.1399,728.0644 497.8118,726.4237 Q496.4993,724.7675 496.4993,721.6425 Q496.4993,718.5175 497.8118,716.8612 Q499.1399,715.205 501.6399,715.205 Q502.3431,715.205 502.9837,715.3612 Q503.6399,715.5175 504.2024,715.8144 L504.2024,718.5331 Q503.5774,717.955 502.9837,717.6894 Q502.3899,717.4081 501.7649,717.4081 Q500.4212,717.4081 499.7337,718.4862 Q499.0462,719.5487 499.0462,721.6425 Q499.0462,723.7362 499.7337,724.8144 Q500.4212,725.8769 501.7649,725.8769 Q502.3899,725.8769 502.9837,725.6112 Q503.5774,725.33 504.2024,724.7519 L504.2024,727.4706 Z " fill="#000000"/><text fill="#000000" font-family="sans-serif" font-size="14" lengthAdjust="spacing" textLength="71.333" x="521.7337" y="726.6767">SimConfig</text><line style="stroke:#181818;stroke-width:0.5;" x1="307.7" x2="774.6004" y1="737.83" y2="737.83"/><rect fill="none" height="6" style="stroke:#C82930;stroke-width:1;" width="6" x="314.7" y="748.4784"/><text fill="#000000" font-family="sans-serif" font-size="14" lengthAdjust="spacing" textLength="120.1621" x="326.7" y="754.8251">name: std::string</text><rect fill="none" height="6" style="stroke:#C82930;stroke-width:1;" width="6" x="314.7" y="764.7753"/><text fill="#000000" font-family="sans-serif" font-size="14" lengthAdjust="spacing" textLength="419.5078" x="326.7" y="771.122">parameters: unordered_map&lt;std::string, ParameterBase*&gt;</text><line style="stroke:#181818;stroke-width:0.5;" x1="307.7" x2="774.6004" y1="778.4237" y2="778.4237"/><ellipse cx="317.7" cy="792.0722" fill="#84BE84" rx="3" ry="3" style="stroke:#038048;stroke-width:1;"/><text fill="#000000" font-family="sans-serif" font-size="14" lengthAdjust="spacing" textLength="198.0439" x="326.7" y="795.4189">getName() const: std::string</text><ellipse cx="317.7" cy="808.3691" fill="#84BE84" rx="3" ry="3" style="stroke:#038048;stroke-width:1;"/><text fill="#000000" font-family="sans-serif" font-size="14" lengthAdjust="spacing" textLength="219.5703" x="326.7" y="811.7157">addParameter() : template&lt;T&gt;</text><ellipse cx="317.7" cy="824.6659" fill="#84BE84" rx="3" ry="3" style="stroke:#038048;stroke-width:1;"/><text fill="#000000" font-family="sans-serif" font-size="14" lengthAdjust="spacing" textLength="214.6143" x="326.7" y="828.0126">setParameter() : template&lt;T&gt;</text><ellipse cx="317.7" cy="840.9628" fill="#84BE84" rx="3" ry="3" style="stroke:#038048;stroke-width:1;"/><text fill="#000000" font-family="sans-serif" font-size="14" lengthAdjust="spacing" textLength="441.3076" x="326.7" y="844.3095">setParameterMemberData() : template &lt;T_Struct, T_Member&gt;</text><ellipse cx="317.7" cy="857.2597" fill="#84BE84" rx="3" ry="3" style="stroke:#038048;stroke-width:1;"/><text fill="#000000" font-family="sans-serif" font-size="14" lengthAdjust="spacing" textLength="216.207" x="326.7" y="860.6064">getParameter() : template&lt;T&gt;</text><ellipse cx="317.7" cy="873.5566" fill="#84BE84" rx="3" ry="3" style="stroke:#038048;stroke-width:1;"/><text fill="#000000" font-family="sans-serif" font-size="14" lengthAdjust="spacing" textLength="442.9004" x="326.7" y="876.9032">getParameterMemberData() : template &lt;T_Struct, T_Member&gt;</text><ellipse cx="317.7" cy="889.8534" fill="#84BE84" rx="3" ry="3" style="stroke:#038048;stroke-width:1;"/><text fill="#000000" font-family="sans-serif" font-size="14" lengthAdjust="spacing" textLength="130.8125" x="326.7" y="893.2001">parseParameters()</text><ellipse cx="317.7" cy="906.1503" fill="#84BE84" rx="3" ry="3" style="stroke:#038048;stroke-width:1;"/><text fill="#000000" font-family="sans-serif" font-size="14" font-style="italic" lengthAdjust="spacing" textLength="217.3076" x="326.7" y="909.497">parseParametersUserDefined()</text></g><!--class ParameterBase--><g id="elem_ParameterBase"><rect codeLine="53" fill="#F1F1F1" height="113.1875" id="ParameterBase" rx="2.5" ry="2.5" style="stroke:#181818;stroke-width:0.5;" width="182.748" x="502.77" y="1133.69"/><ellipse cx="537.2061" cy="1149.69" fill="#ADD1B2" rx="11" ry="11" style="stroke:#181818;stroke-width:1;"/><path d="M540.1749,1155.3306 Q539.5968,1155.6275 538.9561,1155.7681 Q538.3155,1155.9244 537.6124,1155.9244 Q535.1124,1155.9244 533.7843,1154.2837 Q532.4718,1152.6275 532.4718,1149.5025 Q532.4718,1146.3775 533.7843,1144.7212 Q535.1124,1143.065 537.6124,1143.065 Q538.3155,1143.065 538.9561,1143.2212 Q539.6124,1143.3775 540.1749,1143.6744 L540.1749,1146.3931 Q539.5499,1145.815 538.9561,1145.5494 Q538.3624,1145.2681 537.7374,1145.2681 Q536.3936,1145.2681 535.7061,1146.3462 Q535.0186,1147.4087 535.0186,1149.5025 Q535.0186,1151.5962 535.7061,1152.6744 Q536.3936,1153.7369 537.7374,1153.7369 Q538.3624,1153.7369 538.9561,1153.4712 Q539.5499,1153.19 540.1749,1152.6119 L540.1749,1155.3306 Z " fill="#000000"/><text fill="#000000" font-family="sans-serif" font-size="14" lengthAdjust="spacing" textLength="107.5566" x="555.5253" y="1154.5367">ParameterBase</text><line style="stroke:#181818;stroke-width:0.5;" x1="503.77" x2="684.518" y1="1165.69" y2="1165.69"/><rect fill="none" height="6" style="stroke:#C82930;stroke-width:1;" width="6" x="510.77" y="1176.3384"/><text fill="#000000" font-family="sans-serif" font-size="14" lengthAdjust="spacing" textLength="120.1621" x="522.77" y="1182.6851">name: std::string</text><rect fill="none" height="6" style="stroke:#C82930;stroke-width:1;" width="6" x="510.77" y="1192.6353"/><text fill="#000000" font-family="sans-serif" font-size="14" lengthAdjust="spacing" textLength="119.7725" x="522.77" y="1198.982">type: ParamType</text><line style="stroke:#181818;stroke-width:0.5;" x1="503.77" x2="684.518" y1="1206.2837" y2="1206.2837"/><ellipse cx="513.77" cy="1219.9322" fill="#84BE84" rx="3" ry="3" style="stroke:#038048;stroke-width:1;"/><text fill="#000000" font-family="sans-serif" font-size="14" lengthAdjust="spacing" textLength="155.6748" x="522.77" y="1223.2789">getName(): std::string</text><ellipse cx="513.77" cy="1236.2291" fill="#84BE84" rx="3" ry="3" style="stroke:#038048;stroke-width:1;"/><text fill="#000000" font-family="sans-serif" font-size="14" lengthAdjust="spacing" textLength="156.748" x="522.77" y="1239.5757">getType(): ParamType</text></g><!--class Parameter--><g id="elem_Parameter"><rect codeLine="60" fill="#F1F1F1" height="96.8906" id="Parameter" rx="2.5" ry="2.5" style="stroke:#181818;stroke-width:0.5;" width="253.1787" x="467.56" y="976.8"/><ellipse cx="553.1664" cy="992.8" fill="#ADD1B2" rx="11" ry="11" style="stroke:#181818;stroke-width:1;"/><path d="M556.1352,998.4406 Q555.5571,998.7375 554.9164,998.8781 Q554.2758,999.0344 553.5727,999.0344 Q551.0727,999.0344 549.7446,997.3938 Q548.4321,995.7375 548.4321,992.6125 Q548.4321,989.4875 549.7446,987.8313 Q551.0727,986.175 553.5727,986.175 Q554.2758,986.175 554.9164,986.3313 Q555.5727,986.4875 556.1352,986.7844 L556.1352,989.5031 Q555.5102,988.925 554.9164,988.6594 Q554.3227,988.3781 553.6977,988.3781 Q552.3539,988.3781 551.6664,989.4563 Q550.9789,990.5188 550.9789,992.6125 Q550.9789,994.7063 551.6664,995.7844 Q552.3539,996.8469 553.6977,996.8469 Q554.3227,996.8469 554.9164,996.5813 Q555.5102,996.3 556.1352,995.7219 L556.1352,998.4406 Z " fill="#000000"/><text fill="#000000" font-family="sans-serif" font-size="14" lengthAdjust="spacing" textLength="73.4658" x="573.6664" y="997.6467">Parameter</text><line style="stroke:#181818;stroke-width:0.5;" x1="468.56" x2="719.7387" y1="1008.8" y2="1008.8"/><rect fill="none" height="6" style="stroke:#C82930;stroke-width:1;" width="6" x="475.56" y="1019.4484"/><text fill="#000000" font-family="sans-serif" font-size="14" lengthAdjust="spacing" textLength="142.6182" x="487.56" y="1025.7951">value: template&lt;T&gt;</text><line style="stroke:#181818;stroke-width:0.5;" x1="468.56" x2="719.7387" y1="1033.0969" y2="1033.0969"/><ellipse cx="478.56" cy="1046.7453" fill="#84BE84" rx="3" ry="3" style="stroke:#038048;stroke-width:1;"/><text fill="#000000" font-family="sans-serif" font-size="14" lengthAdjust="spacing" textLength="225.5859" x="487.56" y="1050.092">setValue(): template&lt;U, V = T&gt;</text><ellipse cx="478.56" cy="1063.0422" fill="#84BE84" rx="3" ry="3" style="stroke:#038048;stroke-width:1;"/><text fill="#000000" font-family="sans-serif" font-size="14" lengthAdjust="spacing" textLength="227.1787" x="487.56" y="1066.3889">getValue(): template&lt;U, V = T&gt;</text></g><!--class ParamType--><g id="elem_ParamType"><rect codeLine="66" fill="#F1F1F1" height="129.4844" id="ParamType" rx="2.5" ry="2.5" style="stroke:#181818;stroke-width:0.5;" width="132.6133" x="347.84" y="1306.88"/><ellipse cx="372.417" cy="1322.88" fill="#EB937F" rx="11" ry="11" style="stroke:#181818;stroke-width:1;"/><path d="M376.5264,1328.88 L368.8076,1328.88 L368.8076,1316.4894 L376.5264,1316.4894 L376.5264,1318.6456 L371.2608,1318.6456 L371.2608,1321.3175 L376.0264,1321.3175 L376.0264,1323.4737 L371.2608,1323.4737 L371.2608,1326.7237 L376.5264,1326.7237 L376.5264,1328.88 Z " fill="#000000"/><text fill="#000000" font-family="sans-serif" font-size="14" lengthAdjust="spacing" textLength="79.3311" x="388.5452" y="1327.7267">ParamType</text><line style="stroke:#181818;stroke-width:0.5;" x1="348.84" x2="479.4533" y1="1338.88" y2="1338.88"/><ellipse cx="358.84" cy="1352.5284" fill="none" rx="3" ry="3" style="stroke:#038048;stroke-width:1;"/><text fill="#000000" font-family="sans-serif" font-size="14" lengthAdjust="spacing" textLength="23.1533" x="367.84" y="1355.8751">INT</text><ellipse cx="358.84" cy="1368.8253" fill="none" rx="3" ry="3" style="stroke:#038048;stroke-width:1;"/><text fill="#000000" font-family="sans-serif" font-size="14" lengthAdjust="spacing" textLength="45.001" x="367.84" y="1372.172">FLOAT</text><ellipse cx="358.84" cy="1385.1222" fill="none" rx="3" ry="3" style="stroke:#038048;stroke-width:1;"/><text fill="#000000" font-family="sans-serif" font-size="14" lengthAdjust="spacing" textLength="52.6162" x="367.84" y="1388.4689">STRING</text><ellipse cx="358.84" cy="1401.4191" fill="none" rx="3" ry="3" style="stroke:#038048;stroke-width:1;"/><text fill="#000000" font-family="sans-serif" font-size="14" lengthAdjust="spacing" textLength="31.6367" x="367.84" y="1404.7657">TICK</text><ellipse cx="358.84" cy="1417.7159" fill="none" rx="3" ry="3" style="stroke:#038048;stroke-width:1;"/><text fill="#000000" font-family="sans-serif" font-size="14" lengthAdjust="spacing" textLength="106.6133" x="367.84" y="1421.0626">USER_DEFINED</text><line style="stroke:#181818;stroke-width:0.5;" x1="348.84" x2="479.4533" y1="1428.3644" y2="1428.3644"/></g><!--link SimTop to CLIManager--><g id="link_SimTop_CLIManager"><path codeLine="74" d="M541.15,88.05 C541.15,105.04 541.15,107.92 541.15,129.52 " fill="none" id="SimTop-to-CLIManager" style="stroke:#181818;stroke-width:1;"/><polygon fill="none" points="541.15,147.52,547.15,129.52,535.15,129.52,541.15,147.52" style="stroke:#181818;stroke-width:1;"/></g><!--link CLIManager to SimConfigManager--><g id="link_CLIManager_SimConfigManager"><path codeLine="75" d="M541.15,407.75 C541.15,427.79 541.15,430.09 541.15,448.96 " fill="none" id="CLIManager-to-SimConfigManager" style="stroke:#181818;stroke-width:1;"/><polygon fill="none" points="541.15,466.96,547.15,448.96,535.15,448.96,541.15,466.96" style="stroke:#181818;stroke-width:1;"/></g><!--reverse link CLIManager to CLIParameter--><g id="link_CLIManager_CLIParameter"><path codeLine="76" d="M368.143,398.6839 C314.623,435.8439 267.36,468.68 222.73,499.67 " fill="none" id="CLIManager-backto-CLIParameter" style="stroke:#181818;stroke-width:1;"/><polygon fill="#181818" points="378,391.84,370.7902,391.9763,368.143,398.6839,375.3528,398.5476,378,391.84" style="stroke:#181818;stroke-width:1;"/></g><!--reverse link CLIManager to ParameterBase--><g id="link_CLIManager_ParameterBase"><path codeLine="77" d="M713.4848,377.2709 C747.1248,404.1509 768.79,429.3 788.15,467.45 C910.44,708.56 894.3,852.99 738.15,1073.69 C722.41,1095.93 701.25,1116.15 680,1133.23 " fill="none" id="CLIManager-backto-ParameterBase" style="stroke:#181818;stroke-width:1;"/><polygon fill="#181818" points="704.11,369.78,706.3004,376.6504,713.4848,377.2709,711.2944,370.4005,704.11,369.78" style="stroke:#181818;stroke-width:1;"/></g><!--link Parameter to ParameterBase--><g id="link_Parameter_ParameterBase"><path codeLine="78" d="M594.15,1073.84 C594.15,1092.45 594.15,1095.93 594.15,1115.28 " fill="none" id="Parameter-to-ParameterBase" style="stroke:#181818;stroke-width:1;"/><polygon fill="none" points="594.15,1133.28,600.15,1115.28,588.15,1115.28,594.15,1133.28" style="stroke:#181818;stroke-width:1;"/></g><!--reverse link SimConfigManager to SimConfig--><g id="link_SimConfigManager_SimConfig"><path codeLine="79" d="M541.15,658.01 C541.15,677.23 541.15,685.73 541.15,705.51 " fill="none" id="SimConfigManager-backto-SimConfig" style="stroke:#181818;stroke-width:1;"/><polygon fill="#181818" points="541.15,646.01,537.15,652.01,541.15,658.01,545.15,652.01,541.15,646.01" style="stroke:#181818;stroke-width:1;"/></g><!--reverse link SimConfig to Parameter--><g id="link_SimConfig_Parameter"><path codeLine="80" d="M570.2517,928.6814 C575.4417,949.4314 577.73,958.6 582.16,976.3 " fill="none" id="SimConfig-backto-Parameter" style="stroke:#181818;stroke-width:1;"/><polygon fill="#181818" points="567.34,917.04,564.9154,923.8313,570.2517,928.6814,572.6763,921.8901,567.34,917.04" style="stroke:#181818;stroke-width:1;"/></g><!--link SimConfigManager to ParamType--><g id="link_SimConfigManager_ParamType"><path codeLine="81" d="M341.08,646.33 C320.43,663.2 302.25,682.92 289.15,705.83 C176.17,903.33 302.8621,1177.4385 372.5921,1301.6085 " fill="none" id="SimConfigManager-to-ParamType" style="stroke:#181818;stroke-width:1;stroke-dasharray:7.0,7.0;"/><polygon fill="#181818" points="375.53,1306.84,374.6109,1297.0341,373.0818,1302.4804,367.6355,1300.9513,375.53,1306.84" style="stroke:#181818;stroke-width:1;"/></g><!--link SimConfig to ParamType--><g id="link_SimConfig_ParamType"><path codeLine="82" d="M474.95,916.96 C465.18,936.25 456.33,956.68 450.15,976.8 C415.6,1089.18 411.0956,1221.4403 411.9456,1300.6603 " fill="none" id="SimConfig-to-ParamType" style="stroke:#181818;stroke-width:1;stroke-dasharray:7.0,7.0;"/><polygon fill="#181818" points="412.01,1306.66,415.9132,1297.6176,411.9564,1301.6603,407.9137,1297.7034,412.01,1306.66" style="stroke:#181818;stroke-width:1;"/></g><!--link ParameterBase to ParamType--><g id="link_ParameterBase_ParamType"><path codeLine="83" d="M538.18,1247.04 C519.3,1265.86 502.3092,1282.7739 482.8292,1302.1939 " fill="none" id="ParameterBase-to-ParamType" style="stroke:#181818;stroke-width:1;stroke-dasharray:7.0,7.0;"/><polygon fill="#181818" points="478.58,1306.43,487.7778,1302.9086,482.121,1302.8999,482.1297,1297.2431,478.58,1306.43" style="stroke:#181818;stroke-width:1;"/></g><!--SRC=[hLNBRk8m5Dtp5PQw0Khw0H63H7bKcG5QbT0jCed9H4fYotQGHft- -rp7ZXE753R3ojnpd-TSEr66XK3xD0yfGvy31Bz7b1QfND3Yd2R3aJ5nagH24gxDOZX2d_Wa9CUH_1fy3GPHbMUn2RQum0dXEjK3KXvfaVmKj5Yd6TdXdFX8oDZt8HW0unPLQPN76vQ_-poIa0YvfJ64doZDAgk7C6E-gkhxSyQCBShIDyoX4BGhJAeBYIJbK_2qqAmULhpKgSsq3ysqcs3Eap8dXUoCxFhD5_CDSEYwruqJgUoC3KTDgsC3YWfisWsfIjEc_W7XE0QVLoPJMjWS-c-TXc4kI4zrpmJR0c07iM28CfAe3LZjjHBN2Zog8ZZl0qeMOqdMPH4Pz0n7rTxqGjDuEAgPfenm33Be9g9wy_IuPczC7vxf0_Gh2yfZmabyp36RjgfFck1nNGB8RisAV2H9pZBeRXhskMn9VY9yYINkE1_t4XYQeF2eNMQ6Q3rgVma4OU4VHbJKNZFy0oa6PevATjCTWLt9hszRT_UyQgzCbDzYeeTQosdHU_iyhQovBZVejcC_Oq7QbAjR3Js2P4BsBGWCU4yLSLyuSLyuDAsfxqhtlrRZLeLAt-OksxUpOpy8o4lEQK7YRvvHX-YxwadOEL_7gFNhoj8d283ALO5Dt7LvM_g2iv9yeyc7mbGcYnucw0DMlqthBIUeIueoRpgnRr6m2yrflNcTr-Tz-1xiNioVC5ZyCiV3VlL-NAxMmMwrL4dDHytp_ivQ7wP1SzHGzmLgEumzptabkvWZrA3XhKhiWbSFdOgtnWPsyrw7FJtDMferOQxTtI07-mS0]--></g></svg>